<mxfile host="app.diagrams.net" modified="2023-11-26T04:12:24.553Z" agent="Mozilla/5.0 (Macintosh; Intel Mac OS X 10_15_7) AppleWebKit/537.36 (KHTML, like Gecko) Chrome/119.0.0.0 Safari/537.36" etag="tNvKSo-UOmRdQfJpur1l" version="22.1.4" type="google">
  <diagram name="第 1 页" id="S-HkeKTfxLaM4IyU1z_1">
    <mxGraphModel grid="0" page="1" gridSize="10" guides="1" tooltips="1" connect="1" arrows="1" fold="1" pageScale="1" pageWidth="827" pageHeight="1169" math="0" shadow="0">
      <root>
        <mxCell id="0" />
        <mxCell id="1" parent="0" />
        <mxCell id="Nb8XkXgVh-xu1QOgXniO-19" style="edgeStyle=orthogonalEdgeStyle;rounded=0;orthogonalLoop=1;jettySize=auto;html=1;entryX=0.75;entryY=0;entryDx=0;entryDy=0;dashed=1;" edge="1" parent="1" source="Nb8XkXgVh-xu1QOgXniO-1" target="Nb8XkXgVh-xu1QOgXniO-12">
          <mxGeometry relative="1" as="geometry">
            <Array as="points">
              <mxPoint x="190" y="320" />
              <mxPoint x="190" y="320" />
            </Array>
          </mxGeometry>
        </mxCell>
        <mxCell id="Nb8XkXgVh-xu1QOgXniO-20" value="Value of error&lt;br&gt;(For Debug)" style="edgeLabel;html=1;align=center;verticalAlign=middle;resizable=0;points=[];" connectable="0" vertex="1" parent="Nb8XkXgVh-xu1QOgXniO-19">
          <mxGeometry x="-0.0466" relative="1" as="geometry">
            <mxPoint as="offset" />
          </mxGeometry>
        </mxCell>
        <mxCell id="Nb8XkXgVh-xu1QOgXniO-24" style="edgeStyle=orthogonalEdgeStyle;rounded=0;orthogonalLoop=1;jettySize=auto;html=1;entryX=0.5;entryY=1;entryDx=0;entryDy=0;" edge="1" parent="1" source="Nb8XkXgVh-xu1QOgXniO-1" target="Nb8XkXgVh-xu1QOgXniO-27">
          <mxGeometry relative="1" as="geometry">
            <mxPoint x="100" y="100" as="targetPoint" />
            <Array as="points">
              <mxPoint x="120" y="170" />
              <mxPoint x="120" y="170" />
            </Array>
          </mxGeometry>
        </mxCell>
        <mxCell id="Nb8XkXgVh-xu1QOgXniO-31" value="Left Motor&lt;br&gt;Control" style="edgeLabel;html=1;align=center;verticalAlign=middle;resizable=0;points=[];" connectable="0" vertex="1" parent="Nb8XkXgVh-xu1QOgXniO-24">
          <mxGeometry x="-0.0091" y="2" relative="1" as="geometry">
            <mxPoint as="offset" />
          </mxGeometry>
        </mxCell>
        <mxCell id="Nb8XkXgVh-xu1QOgXniO-25" style="edgeStyle=orthogonalEdgeStyle;rounded=0;orthogonalLoop=1;jettySize=auto;html=1;entryX=0.5;entryY=1;entryDx=0;entryDy=0;" edge="1" parent="1" source="Nb8XkXgVh-xu1QOgXniO-1" target="Nb8XkXgVh-xu1QOgXniO-28">
          <mxGeometry relative="1" as="geometry">
            <mxPoint x="220" y="100" as="targetPoint" />
            <Array as="points">
              <mxPoint x="200" y="170" />
              <mxPoint x="200" y="170" />
            </Array>
          </mxGeometry>
        </mxCell>
        <mxCell id="Nb8XkXgVh-xu1QOgXniO-32" value="Right Motor&lt;br style=&quot;border-color: var(--border-color);&quot;&gt;Control" style="edgeLabel;html=1;align=center;verticalAlign=middle;resizable=0;points=[];" connectable="0" vertex="1" parent="Nb8XkXgVh-xu1QOgXniO-25">
          <mxGeometry x="-0.0192" relative="1" as="geometry">
            <mxPoint as="offset" />
          </mxGeometry>
        </mxCell>
        <mxCell id="Nb8XkXgVh-xu1QOgXniO-34" style="edgeStyle=orthogonalEdgeStyle;rounded=0;orthogonalLoop=1;jettySize=auto;html=1;entryX=0;entryY=0.25;entryDx=0;entryDy=0;" edge="1" parent="1" source="Nb8XkXgVh-xu1QOgXniO-1" target="Nb8XkXgVh-xu1QOgXniO-6">
          <mxGeometry relative="1" as="geometry">
            <Array as="points">
              <mxPoint x="240" y="235" />
              <mxPoint x="240" y="235" />
            </Array>
          </mxGeometry>
        </mxCell>
        <mxCell id="Nb8XkXgVh-xu1QOgXniO-35" value="&lt;span style=&quot;font-size: 13px;&quot;&gt;Command (Calibration)&lt;/span&gt;" style="edgeLabel;html=1;align=center;verticalAlign=middle;resizable=0;points=[];" connectable="0" vertex="1" parent="Nb8XkXgVh-xu1QOgXniO-34">
          <mxGeometry x="-0.0114" y="1" relative="1" as="geometry">
            <mxPoint as="offset" />
          </mxGeometry>
        </mxCell>
        <mxCell id="Nb8XkXgVh-xu1QOgXniO-1" value="&lt;font style=&quot;font-size: 20px;&quot;&gt;Mother Board&lt;/font&gt;" style="rounded=1;whiteSpace=wrap;html=1;strokeWidth=3;fillColor=#fff2cc;strokeColor=#d6b656;" vertex="1" parent="1">
          <mxGeometry x="100" y="220" width="120" height="60" as="geometry" />
        </mxCell>
        <mxCell id="Nb8XkXgVh-xu1QOgXniO-9" style="edgeStyle=orthogonalEdgeStyle;rounded=0;orthogonalLoop=1;jettySize=auto;html=1;entryX=1;entryY=0.75;entryDx=0;entryDy=0;" edge="1" parent="1" source="Nb8XkXgVh-xu1QOgXniO-6" target="Nb8XkXgVh-xu1QOgXniO-1">
          <mxGeometry relative="1" as="geometry">
            <Array as="points">
              <mxPoint x="380" y="265" />
              <mxPoint x="380" y="265" />
            </Array>
          </mxGeometry>
        </mxCell>
        <mxCell id="Nb8XkXgVh-xu1QOgXniO-11" value="&lt;font style=&quot;font-size: 13px;&quot;&gt;Sensor Data (Error)&lt;/font&gt;" style="edgeLabel;html=1;align=center;verticalAlign=middle;resizable=0;points=[];" connectable="0" vertex="1" parent="Nb8XkXgVh-xu1QOgXniO-9">
          <mxGeometry x="0.0362" y="-1" relative="1" as="geometry">
            <mxPoint y="1" as="offset" />
          </mxGeometry>
        </mxCell>
        <mxCell id="Nb8XkXgVh-xu1QOgXniO-6" value="&lt;font style=&quot;font-size: 20px;&quot;&gt;Sensor Board&lt;/font&gt;" style="rounded=1;whiteSpace=wrap;html=1;strokeWidth=3;fillColor=#fff2cc;strokeColor=#d6b656;" vertex="1" parent="1">
          <mxGeometry x="430" y="220" width="120" height="60" as="geometry" />
        </mxCell>
        <mxCell id="Nb8XkXgVh-xu1QOgXniO-16" style="edgeStyle=orthogonalEdgeStyle;rounded=0;orthogonalLoop=1;jettySize=auto;html=1;entryX=0.25;entryY=1;entryDx=0;entryDy=0;dashed=1;" edge="1" parent="1" source="Nb8XkXgVh-xu1QOgXniO-12" target="Nb8XkXgVh-xu1QOgXniO-1">
          <mxGeometry relative="1" as="geometry">
            <Array as="points">
              <mxPoint x="130" y="400" />
              <mxPoint x="130" y="400" />
            </Array>
          </mxGeometry>
        </mxCell>
        <mxCell id="Nb8XkXgVh-xu1QOgXniO-21" value="Kp, Kd,&lt;br&gt;Max Speed&lt;br&gt;(Paramenters for tuning)" style="edgeLabel;html=1;align=center;verticalAlign=middle;resizable=0;points=[];" connectable="0" vertex="1" parent="Nb8XkXgVh-xu1QOgXniO-16">
          <mxGeometry x="-0.3759" y="2" relative="1" as="geometry">
            <mxPoint as="offset" />
          </mxGeometry>
        </mxCell>
        <mxCell id="Nb8XkXgVh-xu1QOgXniO-12" value="&lt;font style=&quot;font-size: 13px;&quot;&gt;Remote Console&lt;/font&gt;" style="whiteSpace=wrap;html=1;fillColor=#dae8fc;strokeColor=#6c8ebf;rounded=1;strokeWidth=3;" vertex="1" parent="1">
          <mxGeometry x="100" y="440" width="120" height="60" as="geometry" />
        </mxCell>
        <mxCell id="Nb8XkXgVh-xu1QOgXniO-22" value="" style="rounded=1;whiteSpace=wrap;html=1;fillColor=none;strokeColor=#d6b656;dashed=1;" vertex="1" parent="1">
          <mxGeometry x="60" y="300" width="200" height="130" as="geometry" />
        </mxCell>
        <mxCell id="Nb8XkXgVh-xu1QOgXniO-23" value="Wireless Comunication&lt;br&gt;with NRF24" style="text;html=1;strokeColor=none;fillColor=none;align=center;verticalAlign=middle;whiteSpace=wrap;rounded=0;rotation=90;fontColor=#d6b656;" vertex="1" parent="1">
          <mxGeometry x="170" y="330" width="220" height="60" as="geometry" />
        </mxCell>
        <mxCell id="Nb8XkXgVh-xu1QOgXniO-27" value="M" style="verticalLabelPosition=middle;shadow=0;dashed=0;align=center;html=1;verticalAlign=middle;strokeWidth=1;shape=ellipse;aspect=fixed;fontSize=35;" vertex="1" parent="1">
          <mxGeometry x="90" y="40" width="60" height="60" as="geometry" />
        </mxCell>
        <mxCell id="Nb8XkXgVh-xu1QOgXniO-28" value="M" style="verticalLabelPosition=middle;shadow=0;dashed=0;align=center;html=1;verticalAlign=middle;strokeWidth=1;shape=ellipse;aspect=fixed;fontSize=35;" vertex="1" parent="1">
          <mxGeometry x="170" y="40" width="60" height="60" as="geometry" />
        </mxCell>
      </root>
    </mxGraphModel>
  </diagram>
</mxfile>
